<mxfile host="app.diagrams.net" modified="2024-02-28T06:50:06.308Z" agent="Mozilla/5.0 (X11; Linux x86_64) AppleWebKit/537.36 (KHTML, like Gecko) Chrome/122.0.0.0 Safari/537.36" etag="dB9HAdjHXXJ5T4BYssXB" version="23.1.7" type="device" pages="2">
  <diagram name="General concept" id="11ki-qGFPmhe2-KRNR-B">
    <mxGraphModel dx="1674" dy="786" grid="1" gridSize="10" guides="1" tooltips="1" connect="1" arrows="1" fold="1" page="1" pageScale="1" pageWidth="1169" pageHeight="827" math="0" shadow="0">
      <root>
        <mxCell id="0" />
        <mxCell id="1" parent="0" />
        <mxCell id="DmXsqJ1mcYUJ6Ug4a79O-4" value="" style="edgeStyle=orthogonalEdgeStyle;rounded=0;orthogonalLoop=1;jettySize=auto;html=1;entryX=0.5;entryY=0;entryDx=0;entryDy=0;" parent="1" source="DmXsqJ1mcYUJ6Ug4a79O-1" target="DmXsqJ1mcYUJ6Ug4a79O-6" edge="1">
          <mxGeometry relative="1" as="geometry">
            <mxPoint x="285" y="150" as="targetPoint" />
          </mxGeometry>
        </mxCell>
        <mxCell id="DmXsqJ1mcYUJ6Ug4a79O-1" value="" style="shape=image;html=1;verticalAlign=top;verticalLabelPosition=bottom;labelBackgroundColor=#ffffff;imageAspect=0;aspect=fixed;image=https://cdn1.iconfinder.com/data/icons/CrystalClear/128x128/mimetypes/php.png" parent="1" vertex="1">
          <mxGeometry x="37.5" y="90" width="80" height="80" as="geometry" />
        </mxCell>
        <mxCell id="DmXsqJ1mcYUJ6Ug4a79O-5" style="edgeStyle=orthogonalEdgeStyle;rounded=0;orthogonalLoop=1;jettySize=auto;html=1;entryX=0.5;entryY=1;entryDx=0;entryDy=0;" parent="1" source="DmXsqJ1mcYUJ6Ug4a79O-2" target="DmXsqJ1mcYUJ6Ug4a79O-6" edge="1">
          <mxGeometry relative="1" as="geometry">
            <mxPoint x="345" y="180" as="targetPoint" />
          </mxGeometry>
        </mxCell>
        <mxCell id="szaRplo0g9VldHxW58aS-5" style="edgeStyle=orthogonalEdgeStyle;rounded=0;orthogonalLoop=1;jettySize=auto;html=1;entryX=0;entryY=0.5;entryDx=0;entryDy=0;" edge="1" parent="1" source="DmXsqJ1mcYUJ6Ug4a79O-2" target="szaRplo0g9VldHxW58aS-4">
          <mxGeometry relative="1" as="geometry" />
        </mxCell>
        <mxCell id="DmXsqJ1mcYUJ6Ug4a79O-2" value="" style="shape=image;verticalLabelPosition=bottom;labelBackgroundColor=default;verticalAlign=top;aspect=fixed;imageAspect=0;image=data:image/jpeg,/9j/4AAQSkZJRgABAQAAAQABAAD/2wCEAAkGBw0TDRANDRAUEBAQEBQPDQ0QEBAQDw0QGRcYFxgSFhQZISwhGhsmIBcYJTIiKSo5Ly8vGCA1OjUuOSkyLywBCgoKDg0OHBAQHC4nHiAsMSwwLDkuLC4uLCwwLi4sNS8wLy4uLiwsLC8sLC4uLi4uLjAuLi4uLi4sLy4uLi4uLv/AABEIAOEA4QMBIgACEQEDEQH/xAAcAAEAAgMBAQEAAAAAAAAAAAAAAQYEBQcCAwj/xABFEAACAQEDBQkLDAIDAQAAAAAAAQIDBAUREiExQVEGBxRSU2FxgZETFyIyM5OhorGy4RUWIzRCcnOSwdHS8GKCNXTCJP/EABsBAAIDAQEBAAAAAAAAAAAAAAABBAUGAwIH/8QAOBEAAgECAQYMBQQDAQAAAAAAAAECAxEEBRIhMVGhExQVMkFSYXGBkbHBIiMzQtFicuHwU4LSBv/aAAwDAQACEQMRAD8A7iAAAAAAAAAAAa++LzpWehK0VXmjmjFeNOT0Qjzv4jSbdkJtJXZl160IRc6klCEVjKcmoxitrb0FSvTfAslNuNnjK0SX2l9HS/M1i+pYFDv2/bTaqmXWlhBP6OjFvudNdGt879Gg1ZY0sElpn5FfUxjfMLXbd394TxVPudFasiGXJdc8U+w1Fo3SXhPxrVV/1m6a7IYGqIJMaUI6kvIjOrN62/P8GTUt1eXjVpy+9Um/az4Sk3pbfSyCD2lY83YUmtDa6HgZFO32iPi1qkfu1Zx9jMUkWgE30G1obprxj4lrqf7y7p7+JubDvh2+GCqxp1lrxi6c3/tHN6pUTyc5UoPWkdI1Zx1NnWbq3fWGq1GtlWeb5TPSx++tHS0i1wnGSUotNNYqSeKa2pn57Nzud3S2myTXc3l0W8Z0JPwHtceLLnXXiRamEWuHkSaeLeqfmduBg3RedG0UI16EsYS1PNKD1xktTRnEBq2hk9O+lAAAAAAAAAAAAAAAAAAAAAAAAOY759tlK1UrNj4FKn3RrbOba9Ciu1nTjkm+P/yUvw6fsZKwa+b3JkXFv5fiVgv+5HcXRlRharanN1Ep0qOLjGMHnUp4Z23pw0YPPzc+nofQd9slSEqVOdPxJQjKGGjJaTXoJWMqShFKPSRsJTjOTcug01t3H3dUhk9wjTeqdL6OUXtzZn1pnLd0N0VLLaZWebylgpU6mGCqQeiWGp5mmtqO5HM99arB2izQXjxpTc9uTKSyfdkR8JVnn5rd0d8VSjmZyVmUc8gksSuAB5AYAIEMEACGW7e2veVK28Gk/o7SsnDVGqk3GXWk1z4rYdbOB3JNxtlnktKr0n68TvhX4yNpp7SwwjeZbYwACISgAAAAAAAAAAAAAAAAAAAAcj3x/wDkpfh0/YzrhyTfI/5KX4dP2MlYP6ngRcZ9PxRVi07lt2VWzQVCrB1qCfgYPCpSxztRxzNcz26dRVyCynCM1aRXQnKDvE6RbN8igoPg9CpKeGbuuTCCe15LbfR6Tn14W6rXrTr1pZU5vGT0JakktSSzGMSeKdKFPmo91Ks6nOYAPJ0OYAIEMEACGCAAAyrq+tWf8al78T9AH5/ur61Z/wAal78T9AEDGa0TsHqYABDJgAAAAAAAAAAAAAAaS+90tksuatPGeGKo08JVHztaIrnbRT7dvj2htqz0KcFqdRyqSfPgsEvSdoUKk9KWg4zr04aGzpYORy3eXnx6a5lSX6kfPy8+Uh5qJ04nU7PM5ccp9p100F8bk7HaKzr11PLaUXkzyVgtGYoHz9vPlIeaiPn7efKQ81E9RwtaLunvFLE0pKzW4uXe+u3ZV86/2He+u3ZV86/2Kb8/bz5SHmokfP29OUh5qJ74LEdbeeeFw/V3Fz73127KvnX+w73127KvnX+xTPn7enKQ81EfP28+Uh5qIuCxHW3hwuH6u4ufe+u3ZV86/wBiO97duyp51/sUz5+3pykPNRHz+vPlIeaiHBYjrbw4XD9XcaO+bNGna7RRhjkU606cMXi8mMmlizCPta7TOpVnWqZ51JynNpYJybxeY+JMV7aSI9egEADEACBDMu6vrVn/ABqXvxP0Afn66vrVn/Gpe/E7veMmqUnFtPNnWnSityjUVOOe/tTflpJ+Cje67UZQK9wurx5dpHC6vHl2md5bpdR7i14o9pYgV6NsqrRPt+JmWa9NVRf7fA7Usr4ebtK8e/V5r3sjxLDTSutJtQeIyTWKeKeh7T2WhHAAAAU3dvupdBcFs7XCJLGU9KoRejNxnqWrTsxsN+3lGzWWraJZ8iPgR483mjHrbRxG0V51JyqVJZU5ycpyeuTzsl4WgpvOlqXqRMVWcFmx1sipOUpOUm5Sk8ZSk25Se1t6WeAQWZWgkEAAPIJEAAPIDABAhggAQwQAAAAgQwAAAyrp+tWf8al78Tut6eRn1e1HCbo+tWf8al78Tu16eQl1e1FRlj6E/wBkvRljk/neKNIQAfPTRAA8gMzbutmRLJk/Afq/A3pVTeXXXyqeD0wzP9GaDI+Mb+RLvXuvdeJBxVL714mcAC/IRzvfTvDwqFkTzYOtUXPnjD/36CgG93b2rul52h44qElSjzKMUmvzZXaaEuaEc2mkU9eWdUbBIIOpyB5BIgAB5AYAIEMEACGCAAAAECGAAAAgECGbDc9Rc7dZYLXXpY9Cmm32Jncb18jLpXtRzDevup1La7U14Fmi8HqdWacUupOT5vB2nSr4nhTUeM/QilyxUSozX6WvPR7os8BF3XazUAHkwJoAAQICTMuerhVydUsfRo/XtMI92aphOMtkk+o74WrwVaM9j3dO481I50Wi0AA3vBspbnB73qZVqrz41apLtm2YgqSxk3tbZBcrVYpG7u4PIJAQAPIDABAhggyLFYq9aeRQpzqy1qEXLDneGhc7LDZtwF5zWMoU6XNUqrH1FI8SnGPOdj3GEpc1XKsQXTva2/laH56v8B3tbfytD89X+B44en1kdOAqbClgufe1t/K0Pz1f4DvaW/lqH56v8BcPT6yDgKmwpYLp3tLw5ah+er/Ad7S8OWofnq/wDh6fWDgamwpZBdO9neHK0Pz1f4H0pb2Vsb8OvRitse6TfY0hOvT2jVGpsKKbK4rktNrq9ys8cyf0lV49zpLbJ7di0s6Hdm9rZINStNWddr7K+hpvpSbl6xcrJZKVKCpUYRpwjohCKjFdSOM8StUNZ1hhm+cYlw3RSstmhZ6WiOeU2vCqTemcud+hJLUYd518qpm0RzLnet/3YZVvvBJOFN4vRJrVzdJqTH5XxyqfJg76bt9q6PB6+3Rrva7wtDN+J+AAIKInAACGDyyTyJq6sMsXDQaPurJNDyxIh8VRySawbWxtHzMu9aeTaa8OLVqx7JtGKbxO6uZJ67AA8jAAECGC17jNyMrU+718YWaLwWGadeS0xi9Udr6ltWjuG7JWi10rNHFZcvDkvsQWeUuxPDnwO5WejTpU404JQp04qMYrRGKRFxNfMVlrZKw1FTec9SPFgsVGjTVKhCNOC0RisF0va+cmrbKcczefZrMG1WyUs0c0fb0mGZDFZZtK1FX7X7L3fkXdPDaPi8jZSvNaoPraRHyr/h63wNcQVzypiutuj+DvxensNl8q/wCHrfA8/Ky4nrfA1xAcqYvr7o/8j4vT2epsvlZcT1vgPlZcT1vgawBypi+vuj+A4vT2ev5Nn8rLiev8CPldcn6/wNYBcq4vr7o/8j4vT2ev5NjK9paoYdLbMWta5yzOWbi6D4Hk41MbiKqtObt4L0sj3GjCOpAAgiHUAABggHkBgAhib0XGj6dyYN1wHmBd8kTInGUck3Z2fud52qO2p3Rc+XFT9smaYu++pYcm0UbSlmqU3Tk/8oPFY9Kl6pRjfUZZ1NPsMpWjm1Gu0AEHQ8AgAQy/701jTq2m0NeJGFKD+83KXux7S83pWwSgten9Csb1Ef8A4qz1u0NdkKf7m+vB41Zc2GHYZjL1ZwpyS+5qPha73Iu8BBWXmYwBBjS2BAIGMEEkAMAEHkAAeQGACAGAAIYIB5AYAAhg9UIZU4x2s8mbctLKrZWqGPp0fqd8NS4WtGG17unceKks2DlsLCADfcIyjsV/dpdTtFhqQgsalP6aitblHHGK52nJdaOL4n6IOS7v9zjoVnaaMfoK0sZYaKNV6YvZF6V1rZjJwlW3wPwIeLp3+NeJUSACcQgQAAHVN6j6jV/7Mvcgbm3eVn/dSNNvUfUa3/Zl7kDc27ys/wC6jI/+h5v+/szQYDUu4+BAIMqWQAIEMAECAAHkBgAgBgACGCAAGDyAIYAPIDBYbrs+RTz+NLPL9DAuqwYtVJrwVnin9p/sb40eR8E4/Pn06u7b46l2X2lfi61/gXiAAXxAB8bRQhOEqdSKnCacZwksYyT1NH2AAcx3Rb3lWLdSwPukNPB5ywqQ5oyeaS6Xj0lNtV22mk8K1GrTa49OcV1PDBn6ABKhi5rXpIssJF6tB+d8iWx9jIyJbH2M/RIPfHP07/4PHE/1bv5KRvU48Bq4rD/6ZafuQNzb/LT/ALqN8aG3+Vn/AHUZzL0s6mpbZezLTBRzXbsMcAgzBZAAg8gACBMaPtwOrxH2DgdbiPsN1w2jx16Rw6jx16TQPJeEv9XfEhLEVeruZpOB1uI+wcDrcR9hu+HUeOvSOHUeOvSHJeD/AMu+I+MVeruZo+B1uTfYOBVuJLsN5w6jx16SOH0eOvSHJeE/y74j4xV6m5mj4FW5OXYOA1uTl2G9hbKTaippt5ks+cyT3DI2HnpjUb7nF+iE8XNa4+pWOBVuTl2DgNbk5dhZweuQqPXlu/AuOy2LeVynddZ6YqPO8P0NhZLphHPN5b6MEurWbMEqhkrD0nnWu1ts91ktxyniaktGr++YABYkcAAAAAAAAAAAAABoLf5af92G/NBb/LT/ALqKbLf0Y/u9mSsJzn3GOAQZkngAgBkAEAMAAQwQDYUbpm1jOSjzYZT6ztRw9Ss2qcb27vV2R5nUjBXkzXnkzbZd04LKxyorS1ma6TCPNajOlLNqKzHCakrxZ97B5an95FnKxd/lqf3kWc0OQvoz/d7Ig43nLu9wAC7IQAAAAAAAAAAAAAAAAAAAANBeHlp9XsRvzT3xSwkqm1Z+oqcs03LD3X2tPw0r3JOFdp22mvABlixB5BADAAEMEAABmXRBOssfsptez9SwFWs1dwmprVpW3aiw0bVTmsYyXW8Guk0uRa1PgnT+69+/V/f4K/FwlnZ3Qffm7SqWiKU5RWhSeHsN9bLfCEXg1KeqKz4PaV1vWyPlutTk4wjpkr37NWjxOmCg0nJ9JkXf5an95FoK3dVNyrx/xxb6vjgWQk5Di1Qk9svZHPGv40uwAAuiGAAAAAAAAAAAAAAAAAAAAD51qUZRcZaGfQCkk1ZgV212WVN588dUtT/ZnwLNKKawaxT0p58TAr3VB54PJezSjO4rI8k86hpWx613N6Gu937yfSxS1T8zTAy613VV9nKW1PH0aTGnTkvGjgVFTD1aXPi13pkqM4y1M8kEYknBNPUdLA8gjELoLEkMmKb0JvoWJ96dgrS0Q/8APtPcKUqvMi33Jv0ByUdbsYx6p05SajFYt6EjaULlemcupZ32mzoWeEFhCOG3a+llnh8jVpu9T4V4X/C8dPYRqmMgubpZ8bvsapxz55S8Z/ojNANPSpRpQUIKyRWyk5POfSAAdDyAAAAAAAAAAAAAAAAAAAAAAAAAAAAB1paxM19uNPV0gGWytzyzw3NPnE2ljAI2TuedK2o28dBIBsZ6kVHSAAcxgAAAAAAAAAAAAAAAAf/Z;" parent="1" vertex="1">
          <mxGeometry x="29.599999999999994" y="220" width="90" height="90" as="geometry" />
        </mxCell>
        <mxCell id="DmXsqJ1mcYUJ6Ug4a79O-6" value="Timeseries DB 1" style="whiteSpace=wrap;html=1;verticalAlign=top;labelBackgroundColor=#ffffff;" parent="1" vertex="1">
          <mxGeometry x="185" y="180" width="120" height="60" as="geometry" />
        </mxCell>
        <mxCell id="DmXsqJ1mcYUJ6Ug4a79O-14" style="edgeStyle=orthogonalEdgeStyle;rounded=0;orthogonalLoop=1;jettySize=auto;html=1;entryX=1;entryY=0.5;entryDx=0;entryDy=0;" parent="1" source="DmXsqJ1mcYUJ6Ug4a79O-10" target="DmXsqJ1mcYUJ6Ug4a79O-6" edge="1">
          <mxGeometry relative="1" as="geometry" />
        </mxCell>
        <mxCell id="szaRplo0g9VldHxW58aS-7" style="edgeStyle=orthogonalEdgeStyle;rounded=0;orthogonalLoop=1;jettySize=auto;html=1;" edge="1" parent="1" source="DmXsqJ1mcYUJ6Ug4a79O-10" target="szaRplo0g9VldHxW58aS-4">
          <mxGeometry relative="1" as="geometry" />
        </mxCell>
        <mxCell id="DmXsqJ1mcYUJ6Ug4a79O-10" value="" style="shape=image;verticalLabelPosition=bottom;labelBackgroundColor=default;verticalAlign=top;aspect=fixed;imageAspect=0;image=https://grafana.com/media/grafana/images/grafana-dashboard-english.png;" parent="1" vertex="1">
          <mxGeometry x="435" y="50.00000000000001" width="710" height="397.01" as="geometry" />
        </mxCell>
        <mxCell id="szaRplo0g9VldHxW58aS-6" style="edgeStyle=orthogonalEdgeStyle;rounded=0;orthogonalLoop=1;jettySize=auto;html=1;entryX=0;entryY=0.75;entryDx=0;entryDy=0;" edge="1" parent="1" source="DmXsqJ1mcYUJ6Ug4a79O-16" target="szaRplo0g9VldHxW58aS-4">
          <mxGeometry relative="1" as="geometry" />
        </mxCell>
        <mxCell id="DmXsqJ1mcYUJ6Ug4a79O-16" value="" style="editableCssRules=.*;html=1;shape=image;verticalLabelPosition=bottom;labelBackgroundColor=#ffffff;verticalAlign=top;aspect=fixed;imageAspect=0;image=data:image/svg+xml,PHN2ZyB4bWxucz0iaHR0cDovL3d3dy53My5vcmcvMjAwMC9zdmciIHhtbG5zOnY9Imh0dHBzOi8vdmVjdGEuaW8vbmFubyIgd2lkdGg9IjcwMi44NDYzMTM0NzY1NjI1IiBoZWlnaHQ9IjY4MS45NjcxMDIwNTA3ODEyIiB2aWV3Qm94PSIxMC4wMDEwMjYxNTM1NjQ0NTMgMTAuMDAwOTMzNjQ3MTU1NzYyIDcwMi44NDYzMTM0NzY1NjI1IDY4MS45NjcxMDIwNTA3ODEyIj4mI3hhOwk8c3R5bGUgdHlwZT0idGV4dC9jc3MiPiYjeGE7CS5zdDB7ZmlsbDojMzI2Y2U1O30mI3hhOwkuc3Qxe2ZpbGw6I2ZmZjt9JiN4YTsJPC9zdHlsZT4mI3hhOwk8cGF0aCBjbGFzcz0ic3QwIiBkPSJNMzU4Ljk4NyAxMC4wNmMtNi4yMTMuMzEzLTEyLjMwMSAxLjg1NC0xNy45MDYgNC41MzFMOTYuNzM3IDEzMS4zNDJjLTEyLjgxMSA2LjExOC0yMi4xMTYgMTcuNjg5LTI1LjI4MSAzMS40MzhsLTYwLjI4MSAyNjIuMjVjLTIuODEyIDEyLjIwNy0uNTI0IDI1LjAyNCA2LjM0NCAzNS41MzFhNDYuMzUgNDYuMzUgMCAwIDAgMi42NTYgMy42ODhsMTY5LjEyNSAyMTAuMjgxYzguODY4IDExLjAyMiAyMi4zMTMgMTcuNDQgMzYuNTMxIDE3LjQzOGwyNzEuMjE5LS4wNjJjMTQuMjEyLjAxIDI3LjY1Ny02LjM5NiAzNi41MzEtMTcuNDA2bDE2OS4wNjMtMjEwLjMxM2M4Ljg3My0xMS4wMjggMTIuMTk3LTI1LjQ2NCA5LjAzMS0zOS4yMTlsLTYwLjM3NS0yNjIuMjVjLTMuMTY1LTEzLjc0OC0xMi40Ny0yNS4zMTktMjUuMjgxLTMxLjQzN0wzODEuNjQzIDE0LjU5MmMtNy4wNS0zLjM2OC0xNC44NDEtNC45MjYtMjIuNjU2LTQuNTMxeiIvPiYjeGE7CTxwYXRoIGNsYXNzPSJzdDEgc3QyIiBkPSJNMzYxLjQwOCA5OS4zMDhjLTguMDc3LjAwMS0xNC42MjYgNy4yNzYtMTQuNjI1IDE2LjI1IDAgLjEzOC4wMjguMjY5LjAzMS40MDYtLjAxMiAxLjIxOS0uMDcxIDIuNjg4LS4wMzEgMy43NS4xOTMgNS4xNzYgMS4zMjEgOS4xMzcgMiAxMy45MDYgMS4yMyAxMC4yMDcgMi4yNjEgMTguNjY3IDEuNjI1IDI2LjUzMS0uNjE5IDIuOTY1LTIuODAzIDUuNjc3LTQuNzUgNy41NjNsLS4zNDQgNi4xODhjLTguNzc3LjcyNy0xNy42MTIgMi4wNTktMjYuNDM3IDQuMDYzLTM3Ljk3NSA4LjYyMi03MC42NyAyOC4xODMtOTUuNTYyIDU0LjU5NC0xLjYxNS0xLjEwMi00LjQ0MS0zLjEyOS01LjI4MS0zLjc1LTIuNjExLjM1My01LjI1IDEuMTU4LTguNjg3LS44NDQtNi41NDUtNC40MDYtMTIuNTA2LTEwLjQ4Ny0xOS43MTktMTcuODEyLTMuMzA1LTMuNTA0LTUuNjk4LTYuODQxLTkuNjI1LTEwLjIxOS0uODkyLS43NjctMi4yNTMtMS44MDUtMy4yNS0yLjU5NC0zLjA3LTIuNDQ4LTYuNjkxLTMuNzI0LTEwLjE4Ny0zLjg0NC00LjQ5Ni0uMTU0LTguODI0IDEuNjA0LTExLjY1NiA1LjE1Ni01LjAzNSA2LjMxNS0zLjQyMyAxNS45NjggMy41OTQgMjEuNTYzLjA3MS4wNTcuMTQ3LjEwMS4yMTkuMTU2Ljk2NC43ODIgMi4xNDUgMS43ODMgMy4wMzEgMi40MzggNC4xNjcgMy4wNzcgNy45NzMgNC42NTEgMTIuMTI1IDcuMDk0IDguNzQ3IDUuNDAyIDE1Ljk5OCA5Ljg4MSAyMS43NSAxNS4yODEgMi4yNDYgMi4zOTQgMi42MzkgNi42MTMgMi45MzggOC40MzhsNC42ODggNC4xODhjLTI1LjA5MyAzNy43NjQtMzYuNzA3IDg0LjQwOS0yOS44NDQgMTMxLjkzOGwtNi4xMjUgMS43ODFjLTEuNjE0IDIuMDg1LTMuODk1IDUuMzY1LTYuMjgxIDYuMzQ0LTcuNTI1IDIuMzctMTUuOTk0IDMuMjQxLTI2LjIxOSA0LjMxMy00LjguMzk5LTguOTQyLjE2MS0xNC4wMzEgMS4xMjUtMS4xMi4yMTItMi42ODEuNjE5LTMuOTA2LjkwNi0uMDQzLjAwOS0uMDgyLjAyMi0uMTI1LjAzMS0uMDY3LjAxNS0uMTU1LjA0OC0uMjE5LjA2My04LjYyIDIuMDgzLTE0LjE1OCAxMC4wMDYtMTIuMzc1IDE3LjgxM3MxMC4yMDMgMTIuNTU3IDE4Ljg3NSAxMC42ODhjLjA2My0uMDE0LjE1NC0uMDE3LjIxOS0uMDMxLjA5OC0uMDIyLjE4NC0uMDcuMjgxLS4wOTQgMS4yMDktLjI2NSAyLjcyNC0uNTYxIDMuNzgxLS44NDQgNS4wMDMtMS4zNCA4LjYyNy0zLjMwOCAxMy4xMjUtNS4wMzEgOS42NzctMy40NzEgMTcuNjkyLTYuMzcgMjUuNS03LjUgMy4yNjEtLjI1NSA2LjY5NyAyLjAxMiA4LjQwNiAyLjk2OWw2LjM3NS0xLjA5NGMxNC42NyA0NS40ODMgNDUuNDE0IDgyLjI0NSA4NC4zNDQgMTA1LjMxMmwtMi42NTYgNi4zNzVjLjk1NyAyLjQ3NSAyLjAxMyA1LjgyNSAxLjMgOC4yNjktMi44MzkgNy4zNjEtNy43MDEgMTUuMTMxLTEzLjIzOCAyMy43OTMtMi42ODEgNC4wMDItNS40MjUgNy4xMDgtNy44NDQgMTEuNjg4LS41NzkgMS4wOTYtMS4zMTYgMi43NzktMS44NzUgMy45MzgtMy43NTkgOC4wNDItMS4wMDIgMTcuMzA1IDYuMjE5IDIwLjc4MSA3LjI2NiAzLjQ5OCAxNi4yODQtLjE5MSAyMC4xODctOC4yNS4wMDYtLjAxMS4wMjYtLjAyLjAzMS0uMDMxcy0uMDA0LS4wMjMgMC0uMDMxYy41NTYtMS4xNDMgMS4zNDQtMi42NDQgMS44MTMtMy43MTkgMi4wNzItNC43NDcgMi43NjItOC44MTUgNC4yMTktMTMuNDA2IDMuODctOS43MiA1Ljk5Ni0xOS45MTkgMTEuMzIzLTI2LjI3NCAxLjQ1OS0xLjc0IDMuODM3LTIuNDA5IDYuMzAyLTMuMDdsMy4zMTMtNmMzMy45MzggMTMuMDI3IDcxLjkyNyAxNi41MjIgMTA5Ljg3NSA3LjkwNmExODkuNzcgMTg5Ljc3IDAgMCAwIDI1LjA5NC03LjU2MmwzLjEyNSA1LjYyNWMyLjUwNi44MTUgNS4yNCAxLjIzNiA3LjQ2OSA0LjUzMSAzLjk4NSA2LjgwOSA2LjcxMSAxNC44NjQgMTAuMDMxIDI0LjU5NCAxLjQ1NyA0LjU5MSAyLjE3OCA4LjY1OSA0LjI1IDEzLjQwNi40NzIgMS4wODIgMS4yNTYgMi42MDUgMS44MTMgMy43NSAzLjg5NSA4LjA4NSAxMi45NDIgMTEuNzg3IDIwLjIxOSA4LjI4MSA3LjIxOS0zLjQ3OCA5Ljk4LTEyLjc0IDYuMjE5LTIwLjc4MWwtMS45MDYtMy45MzdjLTIuNDE5LTQuNTgtNS4xNjMtNy42NTQtNy44NDQtMTEuNjU2LTUuNTM3LTguNjYyLTEwLjEzLTE1Ljg1OC0xMi45NjktMjMuMjE5LTEuMTg3LTMuNzk3LjItNi4xNTggMS4xMjUtOC42MjUtLjU1NC0uNjM1LTEuNzM5LTQuMjItMi40MzctNS45MDYgNDAuNDU3LTIzLjg4OCA3MC4yOTktNjIuMDIxIDg0LjMxMy0xMDYuMDYyIDEuODkyLjI5NyA1LjE4Mi44NzkgNi4yNSAxLjA5NCAyLjItMS40NTEgNC4yMjItMy4zNDQgOC4xODgtMy4wMzEgNy44MDggMS4xMjkgMTUuODIzIDQuMDMgMjUuNSA3LjUgNC40OTggMS43MjMgOC4xMjIgMy43MjMgMTMuMTI1IDUuMDYzIDEuMDU3LjI4MyAyLjU3Mi41NDcgMy43ODEuODEzLjA5Ny4wMjQuMTgzLjA3MS4yODEuMDk0LjA2NS4wMTUuMTU2LjAxNy4yMTkuMDMxIDguNjcyIDEuODY3IDE3LjA5NC0yLjg3OSAxOC44NzUtMTAuNjg3cy0zLjc1NC0xNS43MzItMTIuMzc1LTE3LjgxMmMtMS4yNTQtLjI4NS0zLjAzMi0uNzY5LTQuMjUtMS01LjA4OS0uOTY0LTkuMjMxLS43MjYtMTQuMDMxLTEuMTI1LTEwLjIyNS0xLjA3MS0xOC42OTMtMS45NDMtMjYuMjE5LTQuMzEyLTMuMDY4LTEuMTktNS4yNTEtNC44NDEtNi4zMTMtNi4zNDRsLTUuOTA2LTEuNzE5YzMuMDYyLTIyLjE1NCAyLjIzNy00NS4yMTEtMy4wNjItNjguMjgxLTUuMzQ4LTIzLjI4NS0xNC44LTQ0LjU4MS0yNy40MDYtNjMuMzQ0bDUuMTg4LTQuNjU2Yy4yMzctMi42MjQuMDMzLTUuMzc2IDIuNzUtOC4yODEgNS43NTEtNS40MDEgMTMuMDAzLTkuODc5IDIxLjc1LTE1LjI4MSA0LjE1Mi0yLjQ0MyA3Ljk5LTQuMDE3IDEyLjE1Ni03LjA5NC45NDItLjY5NiAyLjIyOS0xLjc5OCAzLjIxOS0yLjU5NCA3LjAxNS01LjU5NiA4LjYzMS0xNS4yNDggMy41OTQtMjEuNTYycy0xNC43OTctNi45MDktMjEuODEyLTEuMzEyYy0uOTk5Ljc5MS0yLjM1NCAxLjgyMy0zLjI1IDIuNTk0LTMuOTI3IDMuMzc4LTYuMzUxIDYuNzE0LTkuNjU2IDEwLjIxOS03LjIxMiA3LjMyNi0xMy4xNzQgMTMuNDM4LTE5LjcxOSAxNy44NDQtMi44MzYgMS42NTEtNi45OSAxLjA4LTguODc1Ljk2OWwtNS41NjIgMy45NjljLTMxLjcxOS0zMy4yNjEtNzQuOTA1LTU0LjUyNS0xMjEuNDA2LTU4LjY1NmwtLjM0NC02LjUzMWMtMS45MDQtMS44MjItNC4yMDMtMy4zNzctNC43ODEtNy4zMTItLjYzNi03Ljg2NC40MjYtMTYuMzI1IDEuNjU2LTI2LjUzMS42NzktNC43NjkgMS44MDctOC43MyAyLTEzLjkwNi4wNDQtMS4xNzctLjAyNi0yLjg4NC0uMDMxLTQuMTU2LS4wMDEtOC45NzQtNi41NDgtMTYuMjUxLTE0LjYyNS0xNi4yNXptLTE4LjMxMiAxMTMuNDM4bC00LjM0NCA3Ni43MTktLjMxMi4xNTZjLS4yOTEgNi44NjMtNS45NCAxMi4zNDQtMTIuODc1IDEyLjM0NGExMi44MiAxMi44MiAwIDAgMS03LjU5NC0yLjQ2OWwtLjEyNS4wNjMtNjIuOTA2LTQ0LjU5NGMxOS4zMzQtMTkuMDExIDQ0LjA2My0zMy4wNiA3Mi41NjItMzkuNTMxIDUuMjA2LTEuMTgyIDEwLjQxLTIuMDU5IDE1LjU5NC0yLjY4N3ptMzYuNjU2IDBjMzMuMjczIDQuMDkyIDY0LjA0NSAxOS4xNTkgODcuNjI1IDQyLjI1bC02Mi41IDQ0LjMxMy0uMjE5LS4wOTRhMTIuOTEgMTIuOTEgMCAwIDEtMTcuNjg3LTIuMzc1Yy0xLjc3MS0yLjIyMS0yLjcwMS00LjgzMi0yLjgxMi03LjQ2OWwtLjA2Mi0uMDMxek0yMzIuMTI2IDI4My42Mmw1Ny40MzcgNTEuMzc1LS4wNjIuMzEzYTEyLjg4IDEyLjg4IDAgMCAxIDEuNjI1IDE3Ljc1IDEyLjg5IDEyLjg5IDAgMCAxLTYuNjg3IDQuNDA2bC0uMDYyLjI1LTczLjYyNSAyMS4yNWMtMy43NDctMzQuMjY1IDQuMzI5LTY3LjU3NCAyMS4zNzUtOTUuMzQ0em0yNTguMTU2LjAzMWM4LjUzNCAxMy44MzMgMTQuOTk3IDI5LjI4MiAxOC44NDQgNDYuMDMxIDMuODAxIDE2LjU0OCA0Ljc1NSAzMy4wNjcgMy4xODggNDkuMDMxbC03NC0yMS4zMTItLjA2Mi0uMzEyYy02LjYyNy0xLjgxMS0xMC42OTktOC41NTItOS4xNTYtMTUuMzEyLjYzMi0yLjc3IDIuMTAyLTUuMTEzIDQuMDk0LTYuODQ0bC0uMDMxLS4xNTYgNTcuMTI1LTUxLjEyNXptLTE0MC42NTYgNTUuMzEzaDIzLjUzMWwxNC42MjUgMTguMjgxLTUuMjUgMjIuODEzLTIxLjEyNSAxMC4xNTYtMjEuMTg3LTEwLjE4Ny01LjI1LTIyLjgxMnptNzUuNDM4IDYyLjU2M2ExMi44MyAxMi44MyAwIDAgMSAyLjk2OS4yMTlsLjEyNS0uMTU2IDc2LjE1NiAxMi44NzVjLTExLjE0NiAzMS4zMTMtMzIuNDczIDU4LjQ0LTYwLjk2OSA3Ni41OTRsLTI5LjU2Mi03MS40MDYuMDk0LS4xMjVjLTIuNzE2LTYuMzEuMDAyLTEzLjcxIDYuMjUtMTYuNzE5IDEuNi0uNzcgMy4yNzEtMS4xOTcgNC45MzgtMS4yODF6bS0xMjcuOTA2LjMxM2ExMi45IDEyLjkgMCAwIDEgMTIuMzc1IDEwLjAzMSAxMi43NyAxMi43NyAwIDAgMS0uNzE5IDcuOTM4bC4yMTkuMjgxLTI5LjI1IDcwLjY4OGMtMjcuMzQ3LTE3LjU0OS00OS4xMjktNDMuODI0LTYwLjc4MS03Ni4wNjJsNzUuNS0xMi44MTIuMTI1LjE1NmMuODQ1LS4xNTUgMS43MDEtLjIzIDIuNTMxLS4yMTl6bTYzLjc4MSAzMC45NjljMi4wMjQtLjA3NCA0LjA3OS4zNDEgNi4wMzEgMS4yODEgMi41NiAxLjIzMyA0LjUzNyAzLjE3MyA1Ljc4MSA1LjVoLjI4MWwzNy4yMTkgNjcuMjVjLTQuODMgMS42MTktOS43OTYgMy4wMDMtMTQuODc1IDQuMTU2LTI4LjQ2NSA2LjQ2My01Ni44MzkgNC41MDUtODIuNTMxLTQuMjVsMzcuMTI1LTY3LjEyNWguMDYzYTEyLjkxIDEyLjkxIDAgMCAxIDEwLjkwNi02LjgxMnoiIHN0cm9rZT0ibm9uZSIgc3Ryb2tlLXdpZHRoPSIuMjUiLz4mI3hhOzwvc3ZnPg==;fontColor=default;" parent="1" vertex="1">
          <mxGeometry x="33.290000000000006" y="360" width="84.21" height="80" as="geometry" />
        </mxCell>
        <mxCell id="szaRplo0g9VldHxW58aS-1" value="" style="shape=image;verticalLabelPosition=bottom;labelBackgroundColor=default;verticalAlign=top;aspect=fixed;imageAspect=0;image=https://cdn.worldvectorlogo.com/logos/golang-1.svg;" vertex="1" parent="1">
          <mxGeometry x="25" y="470" width="90" height="45" as="geometry" />
        </mxCell>
        <mxCell id="szaRplo0g9VldHxW58aS-3" style="edgeStyle=orthogonalEdgeStyle;rounded=0;orthogonalLoop=1;jettySize=auto;html=1;entryX=0.75;entryY=1;entryDx=0;entryDy=0;" edge="1" parent="1" source="szaRplo0g9VldHxW58aS-1" target="szaRplo0g9VldHxW58aS-4">
          <mxGeometry relative="1" as="geometry" />
        </mxCell>
        <mxCell id="szaRplo0g9VldHxW58aS-4" value="Timeseries DB 2" style="whiteSpace=wrap;html=1;verticalAlign=top;labelBackgroundColor=#ffffff;" vertex="1" parent="1">
          <mxGeometry x="240" y="354" width="120" height="60" as="geometry" />
        </mxCell>
      </root>
    </mxGraphModel>
  </diagram>
  <diagram name="General concept - 2" id="o312kl2b21NhRNtie23v">
    <mxGraphModel dx="3348" dy="2399" grid="1" gridSize="10" guides="1" tooltips="1" connect="1" arrows="1" fold="1" page="1" pageScale="1" pageWidth="1169" pageHeight="827" math="0" shadow="0">
      <root>
        <mxCell id="2K_jPVSs4C42GnfDPhXa-0" />
        <mxCell id="2K_jPVSs4C42GnfDPhXa-1" parent="2K_jPVSs4C42GnfDPhXa-0" />
        <mxCell id="3mJTbsMc2c0p7rafLozu-2" style="edgeStyle=orthogonalEdgeStyle;rounded=0;orthogonalLoop=1;jettySize=auto;html=1;" parent="2K_jPVSs4C42GnfDPhXa-1" source="2K_jPVSs4C42GnfDPhXa-3" target="3mJTbsMc2c0p7rafLozu-0" edge="1">
          <mxGeometry relative="1" as="geometry" />
        </mxCell>
        <mxCell id="2K_jPVSs4C42GnfDPhXa-3" value="" style="shape=image;html=1;verticalAlign=top;verticalLabelPosition=bottom;labelBackgroundColor=#ffffff;imageAspect=0;aspect=fixed;image=https://cdn1.iconfinder.com/data/icons/CrystalClear/128x128/mimetypes/php.png" parent="2K_jPVSs4C42GnfDPhXa-1" vertex="1">
          <mxGeometry x="72.5" y="-670" width="80" height="80" as="geometry" />
        </mxCell>
        <mxCell id="3mJTbsMc2c0p7rafLozu-3" style="edgeStyle=orthogonalEdgeStyle;rounded=0;orthogonalLoop=1;jettySize=auto;html=1;entryX=0;entryY=0.75;entryDx=0;entryDy=0;" parent="2K_jPVSs4C42GnfDPhXa-1" source="2K_jPVSs4C42GnfDPhXa-5" target="3mJTbsMc2c0p7rafLozu-0" edge="1">
          <mxGeometry relative="1" as="geometry" />
        </mxCell>
        <mxCell id="2K_jPVSs4C42GnfDPhXa-5" value="" style="shape=image;verticalLabelPosition=bottom;labelBackgroundColor=default;verticalAlign=top;aspect=fixed;imageAspect=0;image=data:image/jpeg,/9j/4AAQSkZJRgABAQAAAQABAAD/2wCEAAkGBw0TDRANDRAUEBAQEBQPDQ0QEBAQDw0QGRcYFxgSFhQZISwhGhsmIBcYJTIiKSo5Ly8vGCA1OjUuOSkyLywBCgoKDg0OHBAQHC4nHiAsMSwwLDkuLC4uLCwwLi4sNS8wLy4uLiwsLC8sLC4uLi4uLjAuLi4uLi4sLy4uLi4uLv/AABEIAOEA4QMBIgACEQEDEQH/xAAcAAEAAgMBAQEAAAAAAAAAAAAAAQYEBQcCAwj/xABFEAACAQEDBQkLDAIDAQAAAAAAAQIDBAUREiExQVEGBxRSU2FxgZETFyIyM5OhorGy4RUWIzRCcnOSwdHS8GKCNXTCJP/EABsBAAIDAQEBAAAAAAAAAAAAAAABBAUGAwIH/8QAOBEAAgECAQYMBQQDAQAAAAAAAAECAxEEBRIhMVGhExQVMkFSYXGBkbHBIiMzQtFicuHwU4LSBv/aAAwDAQACEQMRAD8A7iAAAAAAAAAAAa++LzpWehK0VXmjmjFeNOT0Qjzv4jSbdkJtJXZl160IRc6klCEVjKcmoxitrb0FSvTfAslNuNnjK0SX2l9HS/M1i+pYFDv2/bTaqmXWlhBP6OjFvudNdGt879Gg1ZY0sElpn5FfUxjfMLXbd394TxVPudFasiGXJdc8U+w1Fo3SXhPxrVV/1m6a7IYGqIJMaUI6kvIjOrN62/P8GTUt1eXjVpy+9Um/az4Sk3pbfSyCD2lY83YUmtDa6HgZFO32iPi1qkfu1Zx9jMUkWgE30G1obprxj4lrqf7y7p7+JubDvh2+GCqxp1lrxi6c3/tHN6pUTyc5UoPWkdI1Zx1NnWbq3fWGq1GtlWeb5TPSx++tHS0i1wnGSUotNNYqSeKa2pn57Nzud3S2myTXc3l0W8Z0JPwHtceLLnXXiRamEWuHkSaeLeqfmduBg3RedG0UI16EsYS1PNKD1xktTRnEBq2hk9O+lAAAAAAAAAAAAAAAAAAAAAAAAOY759tlK1UrNj4FKn3RrbOba9Ciu1nTjkm+P/yUvw6fsZKwa+b3JkXFv5fiVgv+5HcXRlRharanN1Ep0qOLjGMHnUp4Z23pw0YPPzc+nofQd9slSEqVOdPxJQjKGGjJaTXoJWMqShFKPSRsJTjOTcug01t3H3dUhk9wjTeqdL6OUXtzZn1pnLd0N0VLLaZWebylgpU6mGCqQeiWGp5mmtqO5HM99arB2izQXjxpTc9uTKSyfdkR8JVnn5rd0d8VSjmZyVmUc8gksSuAB5AYAIEMEACGW7e2veVK28Gk/o7SsnDVGqk3GXWk1z4rYdbOB3JNxtlnktKr0n68TvhX4yNpp7SwwjeZbYwACISgAAAAAAAAAAAAAAAAAAAAcj3x/wDkpfh0/YzrhyTfI/5KX4dP2MlYP6ngRcZ9PxRVi07lt2VWzQVCrB1qCfgYPCpSxztRxzNcz26dRVyCynCM1aRXQnKDvE6RbN8igoPg9CpKeGbuuTCCe15LbfR6Tn14W6rXrTr1pZU5vGT0JakktSSzGMSeKdKFPmo91Ks6nOYAPJ0OYAIEMEACGCAAAyrq+tWf8al78T9AH5/ur61Z/wAal78T9AEDGa0TsHqYABDJgAAAAAAAAAAAAAAaS+90tksuatPGeGKo08JVHztaIrnbRT7dvj2htqz0KcFqdRyqSfPgsEvSdoUKk9KWg4zr04aGzpYORy3eXnx6a5lSX6kfPy8+Uh5qJ04nU7PM5ccp9p100F8bk7HaKzr11PLaUXkzyVgtGYoHz9vPlIeaiPn7efKQ81E9RwtaLunvFLE0pKzW4uXe+u3ZV86/2He+u3ZV86/2Kb8/bz5SHmokfP29OUh5qJ74LEdbeeeFw/V3Fz73127KvnX+w73127KvnX+xTPn7enKQ81EfP28+Uh5qIuCxHW3hwuH6u4ufe+u3ZV86/wBiO97duyp51/sUz5+3pykPNRHz+vPlIeaiHBYjrbw4XD9XcaO+bNGna7RRhjkU606cMXi8mMmlizCPta7TOpVnWqZ51JynNpYJybxeY+JMV7aSI9egEADEACBDMu6vrVn/ABqXvxP0Afn66vrVn/Gpe/E7veMmqUnFtPNnWnSityjUVOOe/tTflpJ+Cje67UZQK9wurx5dpHC6vHl2md5bpdR7i14o9pYgV6NsqrRPt+JmWa9NVRf7fA7Usr4ebtK8e/V5r3sjxLDTSutJtQeIyTWKeKeh7T2WhHAAAAU3dvupdBcFs7XCJLGU9KoRejNxnqWrTsxsN+3lGzWWraJZ8iPgR483mjHrbRxG0V51JyqVJZU5ycpyeuTzsl4WgpvOlqXqRMVWcFmx1sipOUpOUm5Sk8ZSk25Se1t6WeAQWZWgkEAAPIJEAAPIDABAhggAQwQAAAAgQwAAAyrp+tWf8al78Tut6eRn1e1HCbo+tWf8al78Tu16eQl1e1FRlj6E/wBkvRljk/neKNIQAfPTRAA8gMzbutmRLJk/Afq/A3pVTeXXXyqeD0wzP9GaDI+Mb+RLvXuvdeJBxVL714mcAC/IRzvfTvDwqFkTzYOtUXPnjD/36CgG93b2rul52h44qElSjzKMUmvzZXaaEuaEc2mkU9eWdUbBIIOpyB5BIgAB5AYAIEMEACGCAAAAECGAAAAgECGbDc9Rc7dZYLXXpY9Cmm32Jncb18jLpXtRzDevup1La7U14Fmi8HqdWacUupOT5vB2nSr4nhTUeM/QilyxUSozX6WvPR7os8BF3XazUAHkwJoAAQICTMuerhVydUsfRo/XtMI92aphOMtkk+o74WrwVaM9j3dO481I50Wi0AA3vBspbnB73qZVqrz41apLtm2YgqSxk3tbZBcrVYpG7u4PIJAQAPIDABAhggyLFYq9aeRQpzqy1qEXLDneGhc7LDZtwF5zWMoU6XNUqrH1FI8SnGPOdj3GEpc1XKsQXTva2/laH56v8B3tbfytD89X+B44en1kdOAqbClgufe1t/K0Pz1f4DvaW/lqH56v8BcPT6yDgKmwpYLp3tLw5ah+er/Ad7S8OWofnq/wDh6fWDgamwpZBdO9neHK0Pz1f4H0pb2Vsb8OvRitse6TfY0hOvT2jVGpsKKbK4rktNrq9ys8cyf0lV49zpLbJ7di0s6Hdm9rZINStNWddr7K+hpvpSbl6xcrJZKVKCpUYRpwjohCKjFdSOM8StUNZ1hhm+cYlw3RSstmhZ6WiOeU2vCqTemcud+hJLUYd518qpm0RzLnet/3YZVvvBJOFN4vRJrVzdJqTH5XxyqfJg76bt9q6PB6+3Rrva7wtDN+J+AAIKInAACGDyyTyJq6sMsXDQaPurJNDyxIh8VRySawbWxtHzMu9aeTaa8OLVqx7JtGKbxO6uZJ67AA8jAAECGC17jNyMrU+718YWaLwWGadeS0xi9Udr6ltWjuG7JWi10rNHFZcvDkvsQWeUuxPDnwO5WejTpU404JQp04qMYrRGKRFxNfMVlrZKw1FTec9SPFgsVGjTVKhCNOC0RisF0va+cmrbKcczefZrMG1WyUs0c0fb0mGZDFZZtK1FX7X7L3fkXdPDaPi8jZSvNaoPraRHyr/h63wNcQVzypiutuj+DvxensNl8q/wCHrfA8/Ky4nrfA1xAcqYvr7o/8j4vT2epsvlZcT1vgPlZcT1vgawBypi+vuj+A4vT2ev5Nn8rLiev8CPldcn6/wNYBcq4vr7o/8j4vT2ev5NjK9paoYdLbMWta5yzOWbi6D4Hk41MbiKqtObt4L0sj3GjCOpAAgiHUAABggHkBgAhib0XGj6dyYN1wHmBd8kTInGUck3Z2fud52qO2p3Rc+XFT9smaYu++pYcm0UbSlmqU3Tk/8oPFY9Kl6pRjfUZZ1NPsMpWjm1Gu0AEHQ8AgAQy/701jTq2m0NeJGFKD+83KXux7S83pWwSgten9Csb1Ef8A4qz1u0NdkKf7m+vB41Zc2GHYZjL1ZwpyS+5qPha73Iu8BBWXmYwBBjS2BAIGMEEkAMAEHkAAeQGACAGAAIYIB5AYAAhg9UIZU4x2s8mbctLKrZWqGPp0fqd8NS4WtGG17unceKks2DlsLCADfcIyjsV/dpdTtFhqQgsalP6aitblHHGK52nJdaOL4n6IOS7v9zjoVnaaMfoK0sZYaKNV6YvZF6V1rZjJwlW3wPwIeLp3+NeJUSACcQgQAAHVN6j6jV/7Mvcgbm3eVn/dSNNvUfUa3/Zl7kDc27ys/wC6jI/+h5v+/szQYDUu4+BAIMqWQAIEMAECAAHkBgAgBgACGCAAGDyAIYAPIDBYbrs+RTz+NLPL9DAuqwYtVJrwVnin9p/sb40eR8E4/Pn06u7b46l2X2lfi61/gXiAAXxAB8bRQhOEqdSKnCacZwksYyT1NH2AAcx3Rb3lWLdSwPukNPB5ywqQ5oyeaS6Xj0lNtV22mk8K1GrTa49OcV1PDBn6ABKhi5rXpIssJF6tB+d8iWx9jIyJbH2M/RIPfHP07/4PHE/1bv5KRvU48Bq4rD/6ZafuQNzb/LT/ALqN8aG3+Vn/AHUZzL0s6mpbZezLTBRzXbsMcAgzBZAAg8gACBMaPtwOrxH2DgdbiPsN1w2jx16Rw6jx16TQPJeEv9XfEhLEVeruZpOB1uI+wcDrcR9hu+HUeOvSOHUeOvSHJeD/AMu+I+MVeruZo+B1uTfYOBVuJLsN5w6jx16SOH0eOvSHJeE/y74j4xV6m5mj4FW5OXYOA1uTl2G9hbKTaippt5ks+cyT3DI2HnpjUb7nF+iE8XNa4+pWOBVuTl2DgNbk5dhZweuQqPXlu/AuOy2LeVynddZ6YqPO8P0NhZLphHPN5b6MEurWbMEqhkrD0nnWu1ts91ktxyniaktGr++YABYkcAAAAAAAAAAAAABoLf5af92G/NBb/LT/ALqKbLf0Y/u9mSsJzn3GOAQZkngAgBkAEAMAAQwQDYUbpm1jOSjzYZT6ztRw9Ss2qcb27vV2R5nUjBXkzXnkzbZd04LKxyorS1ma6TCPNajOlLNqKzHCakrxZ97B5an95FnKxd/lqf3kWc0OQvoz/d7Ig43nLu9wAC7IQAAAAAAAAAAAAAAAAAAAANBeHlp9XsRvzT3xSwkqm1Z+oqcs03LD3X2tPw0r3JOFdp22mvABlixB5BADAAEMEAABmXRBOssfsptez9SwFWs1dwmprVpW3aiw0bVTmsYyXW8Guk0uRa1PgnT+69+/V/f4K/FwlnZ3Qffm7SqWiKU5RWhSeHsN9bLfCEXg1KeqKz4PaV1vWyPlutTk4wjpkr37NWjxOmCg0nJ9JkXf5an95FoK3dVNyrx/xxb6vjgWQk5Di1Qk9svZHPGv40uwAAuiGAAAAAAAAAAAAAAAAAAAAD51qUZRcZaGfQCkk1ZgV212WVN588dUtT/ZnwLNKKawaxT0p58TAr3VB54PJezSjO4rI8k86hpWx613N6Gu937yfSxS1T8zTAy613VV9nKW1PH0aTGnTkvGjgVFTD1aXPi13pkqM4y1M8kEYknBNPUdLA8gjELoLEkMmKb0JvoWJ96dgrS0Q/8APtPcKUqvMi33Jv0ByUdbsYx6p05SajFYt6EjaULlemcupZ32mzoWeEFhCOG3a+llnh8jVpu9T4V4X/C8dPYRqmMgubpZ8bvsapxz55S8Z/ojNANPSpRpQUIKyRWyk5POfSAAdDyAAAAAAAAAAAAAAAAAAAAAAAAAAAAB1paxM19uNPV0gGWytzyzw3NPnE2ljAI2TuedK2o28dBIBsZ6kVHSAAcxgAAAAAAAAAAAAAAAAf/Z;" parent="2K_jPVSs4C42GnfDPhXa-1" vertex="1">
          <mxGeometry x="60" y="-550" width="105" height="105" as="geometry" />
        </mxCell>
        <mxCell id="3mJTbsMc2c0p7rafLozu-19" style="edgeStyle=orthogonalEdgeStyle;rounded=0;orthogonalLoop=1;jettySize=auto;html=1;entryX=1.058;entryY=0.233;entryDx=0;entryDy=0;entryPerimeter=0;" parent="2K_jPVSs4C42GnfDPhXa-1" source="2K_jPVSs4C42GnfDPhXa-6" target="3mJTbsMc2c0p7rafLozu-8" edge="1">
          <mxGeometry relative="1" as="geometry">
            <Array as="points">
              <mxPoint x="590" y="-756" />
            </Array>
          </mxGeometry>
        </mxCell>
        <mxCell id="3mJTbsMc2c0p7rafLozu-20" style="edgeStyle=orthogonalEdgeStyle;rounded=0;orthogonalLoop=1;jettySize=auto;html=1;" parent="2K_jPVSs4C42GnfDPhXa-1" source="2K_jPVSs4C42GnfDPhXa-6" target="3mJTbsMc2c0p7rafLozu-0" edge="1">
          <mxGeometry relative="1" as="geometry" />
        </mxCell>
        <mxCell id="3mJTbsMc2c0p7rafLozu-21" style="edgeStyle=orthogonalEdgeStyle;rounded=0;orthogonalLoop=1;jettySize=auto;html=1;entryX=1;entryY=0.5;entryDx=0;entryDy=0;" parent="2K_jPVSs4C42GnfDPhXa-1" source="2K_jPVSs4C42GnfDPhXa-6" target="2K_jPVSs4C42GnfDPhXa-10" edge="1">
          <mxGeometry relative="1" as="geometry" />
        </mxCell>
        <mxCell id="3mJTbsMc2c0p7rafLozu-22" style="edgeStyle=orthogonalEdgeStyle;rounded=0;orthogonalLoop=1;jettySize=auto;html=1;entryX=1;entryY=0.5;entryDx=0;entryDy=0;" parent="2K_jPVSs4C42GnfDPhXa-1" source="2K_jPVSs4C42GnfDPhXa-6" target="3mJTbsMc2c0p7rafLozu-15" edge="1">
          <mxGeometry relative="1" as="geometry" />
        </mxCell>
        <mxCell id="2K_jPVSs4C42GnfDPhXa-6" value="Prometheus" style="whiteSpace=wrap;html=1;verticalAlign=top;labelBackgroundColor=#ffffff;" parent="2K_jPVSs4C42GnfDPhXa-1" vertex="1">
          <mxGeometry x="440" y="-600" width="120" height="60" as="geometry" />
        </mxCell>
        <mxCell id="2K_jPVSs4C42GnfDPhXa-7" style="edgeStyle=orthogonalEdgeStyle;rounded=0;orthogonalLoop=1;jettySize=auto;html=1;entryX=1;entryY=0.5;entryDx=0;entryDy=0;" parent="2K_jPVSs4C42GnfDPhXa-1" source="2K_jPVSs4C42GnfDPhXa-8" target="2K_jPVSs4C42GnfDPhXa-6" edge="1">
          <mxGeometry relative="1" as="geometry" />
        </mxCell>
        <mxCell id="3mJTbsMc2c0p7rafLozu-12" style="edgeStyle=orthogonalEdgeStyle;rounded=0;orthogonalLoop=1;jettySize=auto;html=1;" parent="2K_jPVSs4C42GnfDPhXa-1" source="2K_jPVSs4C42GnfDPhXa-8" target="3mJTbsMc2c0p7rafLozu-7" edge="1">
          <mxGeometry relative="1" as="geometry">
            <Array as="points">
              <mxPoint x="768" y="-820" />
              <mxPoint x="111" y="-820" />
            </Array>
          </mxGeometry>
        </mxCell>
        <mxCell id="3mJTbsMc2c0p7rafLozu-18" style="edgeStyle=orthogonalEdgeStyle;rounded=0;orthogonalLoop=1;jettySize=auto;html=1;entryX=0.5;entryY=1;entryDx=0;entryDy=0;entryPerimeter=0;" parent="2K_jPVSs4C42GnfDPhXa-1" source="2K_jPVSs4C42GnfDPhXa-8" target="3mJTbsMc2c0p7rafLozu-14" edge="1">
          <mxGeometry relative="1" as="geometry">
            <Array as="points">
              <mxPoint x="768" y="-50" />
              <mxPoint x="113" y="-50" />
              <mxPoint x="113" y="-75" />
            </Array>
          </mxGeometry>
        </mxCell>
        <mxCell id="unmzMrTZI4hTu5INfwr2-2" style="edgeStyle=orthogonalEdgeStyle;rounded=0;orthogonalLoop=1;jettySize=auto;html=1;entryX=1;entryY=0.5;entryDx=0;entryDy=0;" edge="1" parent="2K_jPVSs4C42GnfDPhXa-1" source="2K_jPVSs4C42GnfDPhXa-8" target="unmzMrTZI4hTu5INfwr2-1">
          <mxGeometry relative="1" as="geometry" />
        </mxCell>
        <mxCell id="2K_jPVSs4C42GnfDPhXa-8" value="" style="shape=image;verticalLabelPosition=bottom;labelBackgroundColor=default;verticalAlign=top;aspect=fixed;imageAspect=0;image=https://grafana.com/media/grafana/images/grafana-dashboard-english.png;" parent="2K_jPVSs4C42GnfDPhXa-1" vertex="1">
          <mxGeometry x="610" y="-630.1100000000001" width="215" height="120.22" as="geometry" />
        </mxCell>
        <mxCell id="2K_jPVSs4C42GnfDPhXa-10" value="" style="editableCssRules=.*;html=1;shape=image;verticalLabelPosition=bottom;labelBackgroundColor=#ffffff;verticalAlign=top;aspect=fixed;imageAspect=0;image=data:image/svg+xml,PHN2ZyB4bWxucz0iaHR0cDovL3d3dy53My5vcmcvMjAwMC9zdmciIHhtbG5zOnY9Imh0dHBzOi8vdmVjdGEuaW8vbmFubyIgd2lkdGg9IjcwMi44NDYzMTM0NzY1NjI1IiBoZWlnaHQ9IjY4MS45NjcxMDIwNTA3ODEyIiB2aWV3Qm94PSIxMC4wMDEwMjYxNTM1NjQ0NTMgMTAuMDAwOTMzNjQ3MTU1NzYyIDcwMi44NDYzMTM0NzY1NjI1IDY4MS45NjcxMDIwNTA3ODEyIj4mI3hhOwk8c3R5bGUgdHlwZT0idGV4dC9jc3MiPiYjeGE7CS5zdDB7ZmlsbDojMzI2Y2U1O30mI3hhOwkuc3Qxe2ZpbGw6I2ZmZjt9JiN4YTsJPC9zdHlsZT4mI3hhOwk8cGF0aCBjbGFzcz0ic3QwIiBkPSJNMzU4Ljk4NyAxMC4wNmMtNi4yMTMuMzEzLTEyLjMwMSAxLjg1NC0xNy45MDYgNC41MzFMOTYuNzM3IDEzMS4zNDJjLTEyLjgxMSA2LjExOC0yMi4xMTYgMTcuNjg5LTI1LjI4MSAzMS40MzhsLTYwLjI4MSAyNjIuMjVjLTIuODEyIDEyLjIwNy0uNTI0IDI1LjAyNCA2LjM0NCAzNS41MzFhNDYuMzUgNDYuMzUgMCAwIDAgMi42NTYgMy42ODhsMTY5LjEyNSAyMTAuMjgxYzguODY4IDExLjAyMiAyMi4zMTMgMTcuNDQgMzYuNTMxIDE3LjQzOGwyNzEuMjE5LS4wNjJjMTQuMjEyLjAxIDI3LjY1Ny02LjM5NiAzNi41MzEtMTcuNDA2bDE2OS4wNjMtMjEwLjMxM2M4Ljg3My0xMS4wMjggMTIuMTk3LTI1LjQ2NCA5LjAzMS0zOS4yMTlsLTYwLjM3NS0yNjIuMjVjLTMuMTY1LTEzLjc0OC0xMi40Ny0yNS4zMTktMjUuMjgxLTMxLjQzN0wzODEuNjQzIDE0LjU5MmMtNy4wNS0zLjM2OC0xNC44NDEtNC45MjYtMjIuNjU2LTQuNTMxeiIvPiYjeGE7CTxwYXRoIGNsYXNzPSJzdDEgc3QyIiBkPSJNMzYxLjQwOCA5OS4zMDhjLTguMDc3LjAwMS0xNC42MjYgNy4yNzYtMTQuNjI1IDE2LjI1IDAgLjEzOC4wMjguMjY5LjAzMS40MDYtLjAxMiAxLjIxOS0uMDcxIDIuNjg4LS4wMzEgMy43NS4xOTMgNS4xNzYgMS4zMjEgOS4xMzcgMiAxMy45MDYgMS4yMyAxMC4yMDcgMi4yNjEgMTguNjY3IDEuNjI1IDI2LjUzMS0uNjE5IDIuOTY1LTIuODAzIDUuNjc3LTQuNzUgNy41NjNsLS4zNDQgNi4xODhjLTguNzc3LjcyNy0xNy42MTIgMi4wNTktMjYuNDM3IDQuMDYzLTM3Ljk3NSA4LjYyMi03MC42NyAyOC4xODMtOTUuNTYyIDU0LjU5NC0xLjYxNS0xLjEwMi00LjQ0MS0zLjEyOS01LjI4MS0zLjc1LTIuNjExLjM1My01LjI1IDEuMTU4LTguNjg3LS44NDQtNi41NDUtNC40MDYtMTIuNTA2LTEwLjQ4Ny0xOS43MTktMTcuODEyLTMuMzA1LTMuNTA0LTUuNjk4LTYuODQxLTkuNjI1LTEwLjIxOS0uODkyLS43NjctMi4yNTMtMS44MDUtMy4yNS0yLjU5NC0zLjA3LTIuNDQ4LTYuNjkxLTMuNzI0LTEwLjE4Ny0zLjg0NC00LjQ5Ni0uMTU0LTguODI0IDEuNjA0LTExLjY1NiA1LjE1Ni01LjAzNSA2LjMxNS0zLjQyMyAxNS45NjggMy41OTQgMjEuNTYzLjA3MS4wNTcuMTQ3LjEwMS4yMTkuMTU2Ljk2NC43ODIgMi4xNDUgMS43ODMgMy4wMzEgMi40MzggNC4xNjcgMy4wNzcgNy45NzMgNC42NTEgMTIuMTI1IDcuMDk0IDguNzQ3IDUuNDAyIDE1Ljk5OCA5Ljg4MSAyMS43NSAxNS4yODEgMi4yNDYgMi4zOTQgMi42MzkgNi42MTMgMi45MzggOC40MzhsNC42ODggNC4xODhjLTI1LjA5MyAzNy43NjQtMzYuNzA3IDg0LjQwOS0yOS44NDQgMTMxLjkzOGwtNi4xMjUgMS43ODFjLTEuNjE0IDIuMDg1LTMuODk1IDUuMzY1LTYuMjgxIDYuMzQ0LTcuNTI1IDIuMzctMTUuOTk0IDMuMjQxLTI2LjIxOSA0LjMxMy00LjguMzk5LTguOTQyLjE2MS0xNC4wMzEgMS4xMjUtMS4xMi4yMTItMi42ODEuNjE5LTMuOTA2LjkwNi0uMDQzLjAwOS0uMDgyLjAyMi0uMTI1LjAzMS0uMDY3LjAxNS0uMTU1LjA0OC0uMjE5LjA2My04LjYyIDIuMDgzLTE0LjE1OCAxMC4wMDYtMTIuMzc1IDE3LjgxM3MxMC4yMDMgMTIuNTU3IDE4Ljg3NSAxMC42ODhjLjA2My0uMDE0LjE1NC0uMDE3LjIxOS0uMDMxLjA5OC0uMDIyLjE4NC0uMDcuMjgxLS4wOTQgMS4yMDktLjI2NSAyLjcyNC0uNTYxIDMuNzgxLS44NDQgNS4wMDMtMS4zNCA4LjYyNy0zLjMwOCAxMy4xMjUtNS4wMzEgOS42NzctMy40NzEgMTcuNjkyLTYuMzcgMjUuNS03LjUgMy4yNjEtLjI1NSA2LjY5NyAyLjAxMiA4LjQwNiAyLjk2OWw2LjM3NS0xLjA5NGMxNC42NyA0NS40ODMgNDUuNDE0IDgyLjI0NSA4NC4zNDQgMTA1LjMxMmwtMi42NTYgNi4zNzVjLjk1NyAyLjQ3NSAyLjAxMyA1LjgyNSAxLjMgOC4yNjktMi44MzkgNy4zNjEtNy43MDEgMTUuMTMxLTEzLjIzOCAyMy43OTMtMi42ODEgNC4wMDItNS40MjUgNy4xMDgtNy44NDQgMTEuNjg4LS41NzkgMS4wOTYtMS4zMTYgMi43NzktMS44NzUgMy45MzgtMy43NTkgOC4wNDItMS4wMDIgMTcuMzA1IDYuMjE5IDIwLjc4MSA3LjI2NiAzLjQ5OCAxNi4yODQtLjE5MSAyMC4xODctOC4yNS4wMDYtLjAxMS4wMjYtLjAyLjAzMS0uMDMxcy0uMDA0LS4wMjMgMC0uMDMxYy41NTYtMS4xNDMgMS4zNDQtMi42NDQgMS44MTMtMy43MTkgMi4wNzItNC43NDcgMi43NjItOC44MTUgNC4yMTktMTMuNDA2IDMuODctOS43MiA1Ljk5Ni0xOS45MTkgMTEuMzIzLTI2LjI3NCAxLjQ1OS0xLjc0IDMuODM3LTIuNDA5IDYuMzAyLTMuMDdsMy4zMTMtNmMzMy45MzggMTMuMDI3IDcxLjkyNyAxNi41MjIgMTA5Ljg3NSA3LjkwNmExODkuNzcgMTg5Ljc3IDAgMCAwIDI1LjA5NC03LjU2MmwzLjEyNSA1LjYyNWMyLjUwNi44MTUgNS4yNCAxLjIzNiA3LjQ2OSA0LjUzMSAzLjk4NSA2LjgwOSA2LjcxMSAxNC44NjQgMTAuMDMxIDI0LjU5NCAxLjQ1NyA0LjU5MSAyLjE3OCA4LjY1OSA0LjI1IDEzLjQwNi40NzIgMS4wODIgMS4yNTYgMi42MDUgMS44MTMgMy43NSAzLjg5NSA4LjA4NSAxMi45NDIgMTEuNzg3IDIwLjIxOSA4LjI4MSA3LjIxOS0zLjQ3OCA5Ljk4LTEyLjc0IDYuMjE5LTIwLjc4MWwtMS45MDYtMy45MzdjLTIuNDE5LTQuNTgtNS4xNjMtNy42NTQtNy44NDQtMTEuNjU2LTUuNTM3LTguNjYyLTEwLjEzLTE1Ljg1OC0xMi45NjktMjMuMjE5LTEuMTg3LTMuNzk3LjItNi4xNTggMS4xMjUtOC42MjUtLjU1NC0uNjM1LTEuNzM5LTQuMjItMi40MzctNS45MDYgNDAuNDU3LTIzLjg4OCA3MC4yOTktNjIuMDIxIDg0LjMxMy0xMDYuMDYyIDEuODkyLjI5NyA1LjE4Mi44NzkgNi4yNSAxLjA5NCAyLjItMS40NTEgNC4yMjItMy4zNDQgOC4xODgtMy4wMzEgNy44MDggMS4xMjkgMTUuODIzIDQuMDMgMjUuNSA3LjUgNC40OTggMS43MjMgOC4xMjIgMy43MjMgMTMuMTI1IDUuMDYzIDEuMDU3LjI4MyAyLjU3Mi41NDcgMy43ODEuODEzLjA5Ny4wMjQuMTgzLjA3MS4yODEuMDk0LjA2NS4wMTUuMTU2LjAxNy4yMTkuMDMxIDguNjcyIDEuODY3IDE3LjA5NC0yLjg3OSAxOC44NzUtMTAuNjg3cy0zLjc1NC0xNS43MzItMTIuMzc1LTE3LjgxMmMtMS4yNTQtLjI4NS0zLjAzMi0uNzY5LTQuMjUtMS01LjA4OS0uOTY0LTkuMjMxLS43MjYtMTQuMDMxLTEuMTI1LTEwLjIyNS0xLjA3MS0xOC42OTMtMS45NDMtMjYuMjE5LTQuMzEyLTMuMDY4LTEuMTktNS4yNTEtNC44NDEtNi4zMTMtNi4zNDRsLTUuOTA2LTEuNzE5YzMuMDYyLTIyLjE1NCAyLjIzNy00NS4yMTEtMy4wNjItNjguMjgxLTUuMzQ4LTIzLjI4NS0xNC44LTQ0LjU4MS0yNy40MDYtNjMuMzQ0bDUuMTg4LTQuNjU2Yy4yMzctMi42MjQuMDMzLTUuMzc2IDIuNzUtOC4yODEgNS43NTEtNS40MDEgMTMuMDAzLTkuODc5IDIxLjc1LTE1LjI4MSA0LjE1Mi0yLjQ0MyA3Ljk5LTQuMDE3IDEyLjE1Ni03LjA5NC45NDItLjY5NiAyLjIyOS0xLjc5OCAzLjIxOS0yLjU5NCA3LjAxNS01LjU5NiA4LjYzMS0xNS4yNDggMy41OTQtMjEuNTYycy0xNC43OTctNi45MDktMjEuODEyLTEuMzEyYy0uOTk5Ljc5MS0yLjM1NCAxLjgyMy0zLjI1IDIuNTk0LTMuOTI3IDMuMzc4LTYuMzUxIDYuNzE0LTkuNjU2IDEwLjIxOS03LjIxMiA3LjMyNi0xMy4xNzQgMTMuNDM4LTE5LjcxOSAxNy44NDQtMi44MzYgMS42NTEtNi45OSAxLjA4LTguODc1Ljk2OWwtNS41NjIgMy45NjljLTMxLjcxOS0zMy4yNjEtNzQuOTA1LTU0LjUyNS0xMjEuNDA2LTU4LjY1NmwtLjM0NC02LjUzMWMtMS45MDQtMS44MjItNC4yMDMtMy4zNzctNC43ODEtNy4zMTItLjYzNi03Ljg2NC40MjYtMTYuMzI1IDEuNjU2LTI2LjUzMS42NzktNC43NjkgMS44MDctOC43MyAyLTEzLjkwNi4wNDQtMS4xNzctLjAyNi0yLjg4NC0uMDMxLTQuMTU2LS4wMDEtOC45NzQtNi41NDgtMTYuMjUxLTE0LjYyNS0xNi4yNXptLTE4LjMxMiAxMTMuNDM4bC00LjM0NCA3Ni43MTktLjMxMi4xNTZjLS4yOTEgNi44NjMtNS45NCAxMi4zNDQtMTIuODc1IDEyLjM0NGExMi44MiAxMi44MiAwIDAgMS03LjU5NC0yLjQ2OWwtLjEyNS4wNjMtNjIuOTA2LTQ0LjU5NGMxOS4zMzQtMTkuMDExIDQ0LjA2My0zMy4wNiA3Mi41NjItMzkuNTMxIDUuMjA2LTEuMTgyIDEwLjQxLTIuMDU5IDE1LjU5NC0yLjY4N3ptMzYuNjU2IDBjMzMuMjczIDQuMDkyIDY0LjA0NSAxOS4xNTkgODcuNjI1IDQyLjI1bC02Mi41IDQ0LjMxMy0uMjE5LS4wOTRhMTIuOTEgMTIuOTEgMCAwIDEtMTcuNjg3LTIuMzc1Yy0xLjc3MS0yLjIyMS0yLjcwMS00LjgzMi0yLjgxMi03LjQ2OWwtLjA2Mi0uMDMxek0yMzIuMTI2IDI4My42Mmw1Ny40MzcgNTEuMzc1LS4wNjIuMzEzYTEyLjg4IDEyLjg4IDAgMCAxIDEuNjI1IDE3Ljc1IDEyLjg5IDEyLjg5IDAgMCAxLTYuNjg3IDQuNDA2bC0uMDYyLjI1LTczLjYyNSAyMS4yNWMtMy43NDctMzQuMjY1IDQuMzI5LTY3LjU3NCAyMS4zNzUtOTUuMzQ0em0yNTguMTU2LjAzMWM4LjUzNCAxMy44MzMgMTQuOTk3IDI5LjI4MiAxOC44NDQgNDYuMDMxIDMuODAxIDE2LjU0OCA0Ljc1NSAzMy4wNjcgMy4xODggNDkuMDMxbC03NC0yMS4zMTItLjA2Mi0uMzEyYy02LjYyNy0xLjgxMS0xMC42OTktOC41NTItOS4xNTYtMTUuMzEyLjYzMi0yLjc3IDIuMTAyLTUuMTEzIDQuMDk0LTYuODQ0bC0uMDMxLS4xNTYgNTcuMTI1LTUxLjEyNXptLTE0MC42NTYgNTUuMzEzaDIzLjUzMWwxNC42MjUgMTguMjgxLTUuMjUgMjIuODEzLTIxLjEyNSAxMC4xNTYtMjEuMTg3LTEwLjE4Ny01LjI1LTIyLjgxMnptNzUuNDM4IDYyLjU2M2ExMi44MyAxMi44MyAwIDAgMSAyLjk2OS4yMTlsLjEyNS0uMTU2IDc2LjE1NiAxMi44NzVjLTExLjE0NiAzMS4zMTMtMzIuNDczIDU4LjQ0LTYwLjk2OSA3Ni41OTRsLTI5LjU2Mi03MS40MDYuMDk0LS4xMjVjLTIuNzE2LTYuMzEuMDAyLTEzLjcxIDYuMjUtMTYuNzE5IDEuNi0uNzcgMy4yNzEtMS4xOTcgNC45MzgtMS4yODF6bS0xMjcuOTA2LjMxM2ExMi45IDEyLjkgMCAwIDEgMTIuMzc1IDEwLjAzMSAxMi43NyAxMi43NyAwIDAgMS0uNzE5IDcuOTM4bC4yMTkuMjgxLTI5LjI1IDcwLjY4OGMtMjcuMzQ3LTE3LjU0OS00OS4xMjktNDMuODI0LTYwLjc4MS03Ni4wNjJsNzUuNS0xMi44MTIuMTI1LjE1NmMuODQ1LS4xNTUgMS43MDEtLjIzIDIuNTMxLS4yMTl6bTYzLjc4MSAzMC45NjljMi4wMjQtLjA3NCA0LjA3OS4zNDEgNi4wMzEgMS4yODEgMi41NiAxLjIzMyA0LjUzNyAzLjE3MyA1Ljc4MSA1LjVoLjI4MWwzNy4yMTkgNjcuMjVjLTQuODMgMS42MTktOS43OTYgMy4wMDMtMTQuODc1IDQuMTU2LTI4LjQ2NSA2LjQ2My01Ni44MzkgNC41MDUtODIuNTMxLTQuMjVsMzcuMTI1LTY3LjEyNWguMDYzYTEyLjkxIDEyLjkxIDAgMCAxIDEwLjkwNi02LjgxMnoiIHN0cm9rZT0ibm9uZSIgc3Ryb2tlLXdpZHRoPSIuMjUiLz4mI3hhOzwvc3ZnPg==;fontColor=default;" parent="2K_jPVSs4C42GnfDPhXa-1" vertex="1">
          <mxGeometry x="20.39" y="-330" width="84.21" height="80" as="geometry" />
        </mxCell>
        <mxCell id="3mJTbsMc2c0p7rafLozu-0" value="Statsd-Exporter" style="rounded=0;whiteSpace=wrap;html=1;" parent="2K_jPVSs4C42GnfDPhXa-1" vertex="1">
          <mxGeometry x="285" y="-650" width="120" height="60" as="geometry" />
        </mxCell>
        <mxCell id="3mJTbsMc2c0p7rafLozu-9" style="edgeStyle=orthogonalEdgeStyle;rounded=0;orthogonalLoop=1;jettySize=auto;html=1;" parent="2K_jPVSs4C42GnfDPhXa-1" source="3mJTbsMc2c0p7rafLozu-7" target="3mJTbsMc2c0p7rafLozu-8" edge="1">
          <mxGeometry relative="1" as="geometry" />
        </mxCell>
        <mxCell id="3mJTbsMc2c0p7rafLozu-7" value="AWS Cloudwatch" style="outlineConnect=0;dashed=0;verticalLabelPosition=bottom;verticalAlign=top;align=center;html=1;shape=mxgraph.aws3.cloudwatch;fillColor=#759C3E;gradientColor=none;" parent="2K_jPVSs4C42GnfDPhXa-1" vertex="1">
          <mxGeometry x="70" y="-790" width="82.5" height="93" as="geometry" />
        </mxCell>
        <mxCell id="3mJTbsMc2c0p7rafLozu-8" value="CloudWatch Exporter" style="rounded=0;whiteSpace=wrap;html=1;" parent="2K_jPVSs4C42GnfDPhXa-1" vertex="1">
          <mxGeometry x="280" y="-770" width="120" height="60" as="geometry" />
        </mxCell>
        <mxCell id="3mJTbsMc2c0p7rafLozu-16" style="edgeStyle=orthogonalEdgeStyle;rounded=0;orthogonalLoop=1;jettySize=auto;html=1;" parent="2K_jPVSs4C42GnfDPhXa-1" source="3mJTbsMc2c0p7rafLozu-14" target="3mJTbsMc2c0p7rafLozu-15" edge="1">
          <mxGeometry relative="1" as="geometry" />
        </mxCell>
        <mxCell id="3mJTbsMc2c0p7rafLozu-14" value="" style="sketch=0;pointerEvents=1;shadow=0;dashed=0;html=1;strokeColor=none;labelPosition=center;verticalLabelPosition=bottom;verticalAlign=top;align=center;fillColor=#505050;shape=mxgraph.mscae.oms.log_management" parent="2K_jPVSs4C42GnfDPhXa-1" vertex="1">
          <mxGeometry x="42" y="-125" width="41" height="50" as="geometry" />
        </mxCell>
        <mxCell id="3mJTbsMc2c0p7rafLozu-15" value="ElasticSearch&lt;br&gt;Query&lt;br&gt;&amp;nbsp;Exporter" style="rounded=0;whiteSpace=wrap;html=1;" parent="2K_jPVSs4C42GnfDPhXa-1" vertex="1">
          <mxGeometry x="220" y="-130" width="120" height="60" as="geometry" />
        </mxCell>
        <mxCell id="3mJTbsMc2c0p7rafLozu-30" style="edgeStyle=orthogonalEdgeStyle;rounded=0;orthogonalLoop=1;jettySize=auto;html=1;" parent="2K_jPVSs4C42GnfDPhXa-1" source="3mJTbsMc2c0p7rafLozu-25" target="3mJTbsMc2c0p7rafLozu-29" edge="1">
          <mxGeometry relative="1" as="geometry" />
        </mxCell>
        <mxCell id="3mJTbsMc2c0p7rafLozu-25" value="Collectd" style="whiteSpace=wrap;html=1;verticalAlign=top;labelBackgroundColor=#ffffff;" parent="2K_jPVSs4C42GnfDPhXa-1" vertex="1">
          <mxGeometry x="22.5" y="-220" width="120" height="60" as="geometry" />
        </mxCell>
        <mxCell id="3mJTbsMc2c0p7rafLozu-27" value="" style="outlineConnect=0;dashed=0;verticalLabelPosition=bottom;verticalAlign=top;align=center;html=1;shape=mxgraph.aws3.ec2;fillColor=#F58534;gradientColor=none;" parent="2K_jPVSs4C42GnfDPhXa-1" vertex="1">
          <mxGeometry x="20" y="-220" width="40" height="60" as="geometry" />
        </mxCell>
        <mxCell id="3mJTbsMc2c0p7rafLozu-33" style="edgeStyle=orthogonalEdgeStyle;rounded=0;orthogonalLoop=1;jettySize=auto;html=1;" parent="2K_jPVSs4C42GnfDPhXa-1" source="3mJTbsMc2c0p7rafLozu-29" target="3mJTbsMc2c0p7rafLozu-0" edge="1">
          <mxGeometry relative="1" as="geometry">
            <Array as="points">
              <mxPoint x="345" y="-360" />
              <mxPoint x="345" y="-360" />
            </Array>
          </mxGeometry>
        </mxCell>
        <mxCell id="unmzMrTZI4hTu5INfwr2-3" style="edgeStyle=orthogonalEdgeStyle;rounded=0;orthogonalLoop=1;jettySize=auto;html=1;entryX=0;entryY=0.5;entryDx=0;entryDy=0;" edge="1" parent="2K_jPVSs4C42GnfDPhXa-1" source="3mJTbsMc2c0p7rafLozu-29" target="unmzMrTZI4hTu5INfwr2-1">
          <mxGeometry relative="1" as="geometry" />
        </mxCell>
        <mxCell id="3mJTbsMc2c0p7rafLozu-29" value="Statsd" style="rounded=0;whiteSpace=wrap;html=1;" parent="2K_jPVSs4C42GnfDPhXa-1" vertex="1">
          <mxGeometry x="210" y="-220" width="120" height="60" as="geometry" />
        </mxCell>
        <mxCell id="unmzMrTZI4hTu5INfwr2-5" style="edgeStyle=orthogonalEdgeStyle;rounded=0;orthogonalLoop=1;jettySize=auto;html=1;entryX=0;entryY=0.25;entryDx=0;entryDy=0;" edge="1" parent="2K_jPVSs4C42GnfDPhXa-1" source="unmzMrTZI4hTu5INfwr2-0" target="unmzMrTZI4hTu5INfwr2-1">
          <mxGeometry relative="1" as="geometry" />
        </mxCell>
        <mxCell id="unmzMrTZI4hTu5INfwr2-0" value="" style="shape=image;verticalLabelPosition=bottom;labelBackgroundColor=default;verticalAlign=top;aspect=fixed;imageAspect=0;image=https://cdn.worldvectorlogo.com/logos/golang-1.svg;" vertex="1" parent="2K_jPVSs4C42GnfDPhXa-1">
          <mxGeometry x="52.5" y="-422.5" width="90" height="45" as="geometry" />
        </mxCell>
        <mxCell id="unmzMrTZI4hTu5INfwr2-1" value="Graphite" style="whiteSpace=wrap;html=1;verticalAlign=top;labelBackgroundColor=#ffffff;" vertex="1" parent="2K_jPVSs4C42GnfDPhXa-1">
          <mxGeometry x="460" y="-422.5" width="120" height="60" as="geometry" />
        </mxCell>
      </root>
    </mxGraphModel>
  </diagram>
</mxfile>
